<?xml version="1.0" standalone="no"?>
<!DOCTYPE svg PUBLIC "-//W3C//DTD SVG 20010904//EN"
 "http://www.w3.org/TR/2001/REC-SVG-20010904/DTD/svg10.dtd">
<svg version="1.0" xmlns="http://www.w3.org/2000/svg"
 width="224.000000pt" height="224.000000pt" viewBox="0 0 224.000000 224.000000"
 preserveAspectRatio="xMidYMid meet">
<metadata>
Created by potrace 1.11, written by Peter Selinger 2001-2013
</metadata>
<g transform="translate(0.000000,224.000000) scale(0.100000,-0.100000)"
fill="#000000" stroke="none">
<path d="M580 2183 c-177 -17 -281 -69 -330 -163 -45 -87 -51 -165 -50 -644 0
-562 9 -623 96 -710 99 -97 169 -106 818 -106 543 0 647 6 743 41 101 38 148
97 180 226 15 59 17 128 18 533 0 505 -4 561 -53 660 -46 93 -137 140 -313
160 -76 9 -1024 12 -1109 3z m1163 -32 c144 -23 220 -79 257 -190 30 -91 44
-362 36 -736 -6 -332 -14 -404 -54 -485 -34 -68 -84 -104 -183 -133 -70 -20
-101 -21 -609 -25 -554 -4 -685 2 -784 36 -85 29 -138 97 -167 212 -20 80 -20
1010 0 1090 43 170 129 223 386 240 175 11 1032 4 1118 -9z"/>
<path d="M589 2129 c-189 -15 -276 -66 -314 -185 -17 -53 -19 -105 -23 -522
-4 -563 4 -641 77 -713 46 -46 127 -76 239 -89 111 -13 1010 -13 1120 0 172
20 240 59 283 165 l24 60 0 530 c0 526 0 530 -22 586 -46 113 -124 153 -326
169 -146 11 -907 11 -1058 -1z m375 -120 c10 -16 21 -60 24 -97 l7 -67 38 -3
c56 -5 44 -52 -14 -52 -31 0 -34 -8 -45 -130 -5 -65 -3 -79 13 -99 l20 -24
124 31 c68 17 155 36 193 42 38 6 73 13 77 16 5 2 7 27 6 54 -2 57 7 71 31 47
12 -13 16 -32 15 -69 -1 -28 2 -59 8 -70 6 -11 16 -57 22 -102 l12 -81 67 -5
c64 -5 70 -7 113 -51 27 -28 58 -49 77 -53 65 -13 78 -46 17 -46 -45 0 -67 9
-120 51 -44 34 -59 35 -164 9 -83 -20 -155 -26 -155 -12 0 5 -9 18 -20 30 -23
24 -20 24 -153 -10 -43 -11 -93 -31 -112 -43 -18 -13 -82 -40 -142 -60 -139
-48 -163 -61 -250 -134 -47 -40 -81 -61 -97 -61 -14 0 -26 4 -26 9 0 13 59 63
194 161 63 47 117 90 120 97 3 6 -4 34 -15 62 -24 66 -24 127 2 229 27 109 24
124 -25 134 -47 10 -66 24 -66 48 0 12 10 20 28 24 15 3 53 10 85 16 82 16
120 58 82 90 -15 13 -44 11 -142 -9 -33 -6 -43 -5 -43 5 0 7 9 16 21 19 16 5
19 12 15 31 -7 27 2 30 29 10 37 -27 59 2 28 36 -26 29 8 23 43 -7 16 -14 37
-25 47 -25 21 0 22 29 2 56 -18 24 -19 34 -2 34 7 0 21 -14 31 -31z m-524
-1136 c0 -87 -14 -113 -61 -113 -32 0 -65 39 -55 65 8 22 36 18 36 -5 0 -13 7
-20 20 -20 18 0 20 7 20 75 0 68 2 75 20 75 18 0 20 -7 20 -77z m160 67 c10
-5 24 -26 30 -45 31 -95 -59 -173 -133 -115 -46 36 -45 133 2 160 21 12 78 13
101 0z m108 -28 c3 -28 7 -32 33 -32 16 0 29 6 30 13 1 6 2 21 3 32 0 11 9 21
19 23 15 3 17 -6 17 -87 0 -84 -1 -91 -20 -91 -17 0 -20 7 -20 40 0 38 -2 40
-30 40 -28 0 -30 -2 -30 -40 0 -33 -3 -40 -20 -40 -19 0 -20 7 -20 91 0 81 2
90 18 87 11 -2 18 -14 20 -36z m217 -10 l30 -47 3 48 c3 39 6 47 23 47 17 0
19 -8 19 -90 0 -82 -2 -90 -19 -90 -12 0 -31 19 -51 50 -18 28 -34 50 -37 50
-2 0 -4 -15 -3 -32 3 -55 1 -68 -14 -68 -11 0 -15 18 -18 74 -2 41 -2 81 0 90
6 30 37 16 67 -32z m333 28 c17 -16 22 -32 22 -70 0 -67 -24 -90 -97 -90 l-53
0 0 90 0 90 53 0 c40 0 59 -5 75 -20z m182 6 c0 -11 -14 -16 -47 -18 -35 -2
-47 -7 -49 -20 -2 -15 6 -18 42 -18 37 0 44 -3 44 -20 0 -17 -7 -20 -44 -20
-39 0 -45 -3 -43 -20 1 -17 8 -20 49 -20 36 0 48 -4 48 -15 0 -12 -14 -15 -70
-15 l-70 0 0 83 c0 46 3 87 7 90 3 4 35 7 70 7 48 0 63 -3 63 -14z m154 -1 c4
-12 -4 -15 -44 -15 -43 0 -50 -3 -50 -19 0 -16 8 -20 43 -23 29 -2 42 -8 42
-18 0 -10 -13 -16 -42 -18 -35 -3 -43 -7 -43 -23 0 -16 7 -19 50 -19 38 0 50
-4 50 -15 0 -12 -14 -15 -70 -15 l-70 0 0 90 0 90 64 0 c48 0 65 -4 70 -15z
m158 -10 c8 -17 8 -32 1 -47 -5 -13 -6 -34 -2 -48 13 -45 10 -60 -11 -60 -14
0 -20 7 -20 23 0 28 -17 47 -42 47 -14 0 -18 -8 -18 -35 0 -28 -4 -35 -20 -35
-19 0 -20 7 -20 90 l0 90 60 0 c55 0 62 -2 72 -25z m168 11 c0 -10 -14 -16
-42 -18 -31 -2 -44 -8 -46 -20 -3 -15 4 -18 37 -18 34 0 41 -3 41 -20 0 -17
-7 -20 -40 -20 -33 0 -40 -3 -40 -20 0 -17 7 -20 50 -20 38 0 50 -4 50 -15 0
-12 -14 -15 -70 -15 l-70 0 0 90 0 90 65 0 c50 0 65 -3 65 -14z"/>
<path d="M516 904 c-19 -18 -21 -75 -4 -92 19 -19 66 -15 78 7 15 30 12 66 -8
84 -23 21 -46 22 -66 1z"/>
<path d="M1170 860 c0 -60 0 -60 29 -60 32 0 41 14 41 64 0 38 -15 56 -47 56
-21 0 -23 -4 -23 -60z"/>
<path d="M1660 895 c0 -23 4 -26 28 -23 19 2 27 9 27 23 0 14 -8 21 -27 23
-24 3 -28 0 -28 -23z"/>
<path d="M662 357 c-25 -26 -30 -46 -8 -27 13 10 15 4 18 -39 5 -78 23 -66 26
17 2 39 -1 72 -6 72 -5 0 -18 -10 -30 -23z"/>
<path d="M762 368 c-28 -28 -2 -88 33 -75 20 8 30 -10 15 -28 -9 -11 -17 -12
-32 -4 -27 14 -38 1 -14 -17 26 -18 32 -18 56 6 12 12 20 33 20 53 0 59 -46
97 -78 65z m48 -23 c13 -16 6 -35 -15 -35 -18 0 -28 17 -21 35 7 19 20 19 36
0z"/>
<path d="M877 362 c-24 -27 -22 -94 3 -117 17 -15 24 -16 45 -7 43 20 31 82
-16 82 -32 0 -37 11 -14 30 11 9 18 10 28 1 18 -14 30 -2 16 16 -16 18 -43 16
-62 -5z m50 -78 c8 -22 -18 -37 -36 -20 -7 8 -10 19 -7 25 10 16 36 13 43 -5z"/>
<path d="M992 368 c-15 -15 -16 -48 -2 -48 6 0 3 -11 -5 -24 -15 -23 -15 -26
4 -45 25 -25 44 -27 65 -5 19 18 20 36 5 51 -8 8 -8 17 0 31 20 37 -37 70 -67
40z m48 -29 c0 -14 -5 -19 -17 -17 -26 5 -29 38 -4 38 15 0 21 -6 21 -21z m0
-65 c0 -33 -33 -30 -38 4 -3 17 2 22 17 22 16 0 21 -6 21 -26z"/>
<path d="M1192 357 c-24 -25 -30 -46 -9 -28 20 16 27 3 27 -51 0 -30 4 -47 10
-43 12 7 14 145 2 145 -5 0 -18 -10 -30 -23z"/>
<path d="M1292 371 c-8 -5 -12 -22 -10 -42 2 -29 7 -34 31 -37 15 -2 27 -9 27
-17 0 -18 -25 -26 -39 -12 -16 16 -26 0 -11 -18 30 -36 75 5 74 66 -2 58 -33
85 -72 60z m45 -27 c8 -21 -13 -42 -28 -27 -13 13 -5 43 11 43 6 0 13 -7 17
-16z"/>
<path d="M1398 354 c-15 -33 -1 -58 36 -62 29 -4 33 -14 12 -31 -10 -8 -16 -9
-21 -1 -9 15 -25 12 -25 -4 0 -17 24 -27 45 -20 22 9 35 37 35 77 0 60 -60 91
-82 41z m60 -17 c4 -20 -25 -34 -40 -19 -15 15 -1 44 19 40 10 -2 19 -11 21
-21z"/>
<path d="M1522 368 c-29 -29 -7 -78 35 -78 21 0 22 -3 13 -20 -9 -17 -14 -18
-31 -9 -27 14 -37 3 -16 -18 42 -43 95 42 65 105 -14 30 -46 40 -66 20z m45
-19 c14 -14 6 -39 -12 -39 -18 0 -28 17 -21 35 6 18 18 19 33 4z"/>
<path d="M1103 283 c9 -2 25 -2 35 0 9 3 1 5 -18 5 -19 0 -27 -2 -17 -5z"/>
</g>
</svg>
